<svg width="25" height="25" viewBox="0 0 25 25" fill="none" xmlns="http://www.w3.org/2000/svg">
<g clip-path="url(#clip0_1_547)">
<path d="M10.6941 3.89003C9.71987 3.87867 8.75309 4.06075 7.84975 4.42571C6.94641 4.79067 6.12448 5.33125 5.43156 6.01614C4.73864 6.70103 4.18851 7.51661 3.81305 8.41564C3.43759 9.31466 3.24426 10.2793 3.24426 11.2535C3.24426 12.2278 3.43759 13.1924 3.81305 14.0914C4.18851 14.9904 4.73864 15.806 5.43156 16.4909C6.12448 17.1758 6.94641 17.7164 7.84975 18.0813C8.75309 18.4463 9.71987 18.6284 10.6941 18.617C12.6321 18.5944 14.4831 17.8087 15.8456 16.4302C17.2081 15.0518 17.9723 13.1917 17.9723 11.2535C17.9723 9.31534 17.2081 7.45529 15.8456 6.07682C14.4831 4.69835 12.6321 3.91261 10.6941 3.89003Z" stroke="#231F20" stroke-miterlimit="10"/>
<path d="M16.1871 16.748L21.3301 21.891" stroke="#231F20" stroke-miterlimit="10" stroke-linecap="round"/>
</g>
<defs>
<clipPath id="clip0_1_547">
<rect width="24" height="24" fill="white" transform="translate(0.330078 0.890015)"/>
</clipPath>
</defs>
</svg>
